<?xml version="1.0" standalone="no"?>
<!DOCTYPE svg PUBLIC "-//W3C//DTD SVG 20010904//EN"
 "http://www.w3.org/TR/2001/REC-SVG-20010904/DTD/svg10.dtd">
<svg version="1.0" xmlns="http://www.w3.org/2000/svg"
 width="60.000000pt" height="60.000000pt" viewBox="0 0 300.000000 240.000000"
 preserveAspectRatio="xMidYMid meet">

<g transform="translate(0.000000,240.000000) scale(0.100000,-0.100000)"
fill="#224F34" stroke="none">
<path d="M1407 1950 c-69 -9 -179 -40 -229 -66 -20 -10 -68 -14 -187 -14
l-161 0 -2 -167 -3 -168 -152 -3 c-197 -3 -207 -22 -13 -22 133 0 140 -1 140
-20 0 -19 -7 -20 -200 -20 -127 0 -200 -4 -200 -10 0 -7 373 -10 1100 -10 727
0 1100 3 1100 10 0 6 -73 10 -200 10 -193 0 -200 1 -200 20 0 19 7 20 140 20
194 0 184 19 -12 22 l-153 3 -3 168 -2 167 -157 0 c-144 0 -162 2 -219 25
-129 52 -261 70 -387 55z m328 -60 c84 -32 101 -34 250 -39 l160 -6 5 -160 c3
-101 10 -168 18 -182 17 -31 16 -33 -25 -33 -34 0 -40 4 -56 39 -10 22 -34 60
-53 85 -20 27 -30 46 -22 46 7 1 27 7 43 16 l30 14 -35 -5 -34 -5 31 32 c31
32 69 105 59 115 -9 9 -96 -36 -121 -63 l-25 -27 6 34 5 34 -15 -25 c-8 -14
-15 -34 -16 -44 0 -19 -1 -19 -22 1 -41 36 -141 91 -208 114 -91 31 -278 38
-370 14 -76 -20 -188 -74 -242 -117 -33 -25 -38 -27 -38 -11 -1 10 -8 29 -16
43 l-15 25 6 -35 5 -34 -32 31 c-32 31 -105 69 -115 60 -9 -10 29 -83 60 -115
l31 -32 -34 5 -35 5 30 -14 c17 -9 36 -15 43 -16 9 0 3 -14 -16 -37 -16 -21
-41 -59 -56 -85 -25 -42 -32 -48 -62 -48 -33 0 -33 1 -21 28 7 15 14 95 17
187 l5 160 160 5 c137 5 168 9 215 29 94 40 165 51 295 47 107 -3 130 -7 210
-36z m-162 -64 c72 -29 125 -127 111 -201 -13 -71 -80 -138 -150 -151 -130
-24 -248 100 -214 226 13 48 63 108 105 126 39 17 107 17 148 0z m-238 -46
c-62 -92 -56 -187 17 -266 l41 -44 -237 0 -237 0 28 52 c38 71 130 167 207
218 53 34 180 89 208 90 4 0 -9 -23 -27 -50z m407 15 c76 -31 152 -83 215
-147 48 -50 123 -153 123 -170 0 -5 -107 -8 -237 -8 l-237 0 34 33 c85 83 92
195 18 290 l-30 38 29 -7 c15 -4 54 -17 85 -29z"/>
<path d="M1557 1748 c-15 -12 -37 -58 -37 -78 0 -15 44 2 73 28 34 32 36 62 4
62 -13 0 -31 -6 -40 -12z"/>
<path d="M1450 1705 c-15 -18 -13 -20 18 -30 22 -6 23 -5 12 17 -7 12 -14 24
-15 26 -1 1 -8 -4 -15 -13z"/>
<path d="M1500 1656 c0 -9 103 -116 111 -116 20 0 6 18 -51 68 -33 29 -60 51
-60 48z"/>
<path d="M1430 1585 c-24 -25 -40 -45 -34 -45 5 0 30 20 54 45 24 25 40 45 34
45 -5 0 -30 -20 -54 -45z"/>
<path d="M730 1210 c0 -102 16 -140 22 -52 l3 47 25 -47 c13 -27 28 -48 32
-48 11 0 11 1 -16 62 l-24 55 24 41 c14 23 20 42 14 42 -6 0 -21 -17 -33 -37
l-22 -38 -3 38 c-2 20 -7 37 -13 37 -5 0 -9 -44 -9 -100z"/>
<path d="M920 1210 l0 -100 40 0 c45 0 55 17 13 22 -23 2 -29 8 -31 36 -3 27
0 32 17 32 12 0 21 5 21 10 0 6 -9 10 -20 10 -16 0 -20 7 -20 35 0 32 2 35 30
35 17 0 30 5 30 10 0 6 -18 10 -40 10 l-40 0 0 -100z"/>
<path d="M1100 1210 l0 -100 33 0 c51 0 67 24 67 102 0 75 -16 98 -68 98 l-32
0 0 -100z m70 61 c5 -11 10 -38 10 -61 0 -51 -15 -80 -40 -80 -18 0 -20 7 -20
80 0 73 2 80 20 80 10 0 24 -9 30 -19z"/>
<path d="M1320 1253 c-6 -32 -15 -77 -19 -100 -7 -34 -6 -43 5 -43 8 0 14 9
14 20 0 15 7 20 26 20 17 0 28 -6 31 -20 3 -11 9 -20 14 -20 12 0 12 -2 -8
107 -13 76 -19 93 -34 93 -13 0 -20 -13 -29 -57z m43 -45 c5 -34 3 -38 -15
-38 -18 0 -20 4 -14 31 3 17 6 39 6 47 0 29 17 -2 23 -40z"/>
<path d="M1500 1210 c0 -60 4 -100 10 -100 6 0 10 40 10 100 0 60 -4 100 -10
100 -6 0 -10 -40 -10 -100z"/>
<path d="M1770 1210 c0 -102 16 -140 22 -52 l4 47 13 -33 c14 -35 34 -38 39
-6 8 42 22 36 22 -9 0 -26 5 -47 10 -47 6 0 10 40 10 101 0 117 -14 128 -40
34 -18 -65 -21 -64 -41 13 -7 29 -18 52 -26 52 -10 0 -13 -24 -13 -100z"/>
<path d="M1990 1210 l0 -100 34 0 c48 0 66 28 66 106 0 70 -17 94 -68 94 l-32
0 0 -100z m68 63 c5 -10 9 -38 9 -63 0 -55 -11 -80 -37 -80 -18 0 -20 7 -20
80 0 73 2 80 20 80 10 0 23 -8 28 -17z"/>
<path d="M2180 1210 c0 -73 3 -100 13 -100 7 0 12 14 11 37 -1 34 2 39 30 48
27 9 31 15 34 48 4 48 -11 67 -54 67 l-34 0 0 -100z m65 45 c0 -23 -5 -31 -22
-33 -19 -3 -23 1 -23 26 0 33 8 44 30 40 9 -2 15 -14 15 -33z"/>
<path d="M400 940 c0 -6 73 -10 200 -10 193 0 200 -1 200 -20 0 -19 -7 -20
-140 -20 -194 0 -184 -19 13 -22 l152 -3 3 -167 2 -168 161 0 c119 0 167 -4
187 -14 54 -28 158 -56 242 -65 115 -13 228 1 332 41 79 30 91 32 250 35 l168
4 2 167 3 167 153 3 c196 3 206 22 12 22 -133 0 -140 1 -140 20 0 19 7 20 200
20 127 0 200 4 200 10 0 7 -373 10 -1100 10 -727 0 -1100 -3 -1100 -10z m510
-40 c7 -17 30 -55 51 -85 31 -44 35 -55 21 -55 -9 -1 -28 -8 -42 -16 l-25 -15
35 6 34 5 -31 -32 c-31 -32 -69 -105 -59 -115 9 -9 93 35 120 63 l27 29 -6
-30 c-6 -29 -6 -29 9 -11 9 11 16 28 16 38 0 15 8 12 48 -17 64 -46 162 -90
242 -111 49 -12 93 -15 180 -12 138 6 225 34 338 108 39 26 72 43 72 37 1 -7
7 -25 15 -42 l15 -30 -3 33 -4 33 31 -30 c32 -31 104 -67 114 -57 9 10 -32 90
-61 118 l-29 28 33 -6 34 -5 -25 15 c-14 8 -33 15 -43 16 -15 0 -12 8 17 46
19 25 43 63 53 85 16 35 22 39 56 39 41 0 42 -2 25 -33 -8 -14 -15 -81 -18
-182 l-5 -160 -160 -5 c-137 -4 -168 -8 -214 -28 -160 -68 -398 -67 -541 1
-39 19 -68 22 -210 27 l-165 5 -2 157 c-1 121 -5 164 -18 187 l-16 31 40 0
c34 0 40 -4 51 -30z m442 -14 c-79 -86 -81 -185 -6 -283 l26 -34 -29 7 c-103
25 -218 92 -300 176 -48 50 -123 153 -123 170 0 5 106 8 236 8 l237 0 -41 -44z
m253 10 c95 -73 108 -186 32 -273 -75 -86 -199 -86 -274 0 -85 97 -57 228 62
292 47 25 134 16 180 -19z m471 19 c-14 -37 -88 -134 -138 -181 -82 -77 -184
-135 -281 -158 l-29 -7 26 34 c75 98 73 197 -6 283 l-41 44 238 0 c208 0 236
-2 231 -15z"/>
<path d="M1480 855 c10 -13 9 -15 -8 -15 -21 0 -82 -45 -82 -61 0 -5 50 -9
110 -9 61 0 110 4 110 9 0 14 -59 61 -77 61 -9 0 -13 6 -9 15 4 11 -2 15 -26
15 -26 0 -29 -2 -18 -15z m-4 -41 c-3 -9 -6 -20 -6 -25 0 -5 -13 -9 -30 -9
-34 0 -33 21 3 38 31 15 40 14 33 -4z"/>
<path d="M1377 753 c-16 -4 -17 -7 -4 -21 8 -10 17 -29 21 -45 12 -50 39 -67
106 -67 67 0 94 17 106 67 4 16 13 35 21 44 12 14 11 17 -9 23 -26 7 -214 6
-241 -1z m83 -37 c0 -14 5 -37 10 -52 13 -32 8 -38 -19 -29 -24 7 -51 53 -51
85 0 16 6 20 30 20 25 0 30 -4 30 -24z"/>
</g>
</svg>
